<mxfile host="app.diagrams.net" modified="2023-06-15T01:26:44.946Z" agent="Mozilla/5.0 (Windows NT 10.0; Win64; x64) AppleWebKit/537.36 (KHTML, like Gecko) Chrome/114.0.0.0 Safari/537.36" etag="dg5Z-ij9D117f-j_M-ou" version="21.3.8" type="github">
  <diagram name="第 1 页" id="BYBKdmfmoqIhAZ4G9gur">
    <mxGraphModel dx="794" dy="470" grid="0" gridSize="10" guides="0" tooltips="1" connect="1" arrows="1" fold="1" page="1" pageScale="1" pageWidth="827" pageHeight="1169" math="0" shadow="0">
      <root>
        <mxCell id="0" />
        <mxCell id="1" parent="0" />
        <mxCell id="lyZJZjhXP6hzJfDhOkGa-17" style="rounded=0;orthogonalLoop=1;jettySize=auto;html=1;exitX=0.5;exitY=1;exitDx=0;exitDy=0;entryX=0.5;entryY=0;entryDx=0;entryDy=0;" edge="1" parent="1" source="lyZJZjhXP6hzJfDhOkGa-3" target="lyZJZjhXP6hzJfDhOkGa-12">
          <mxGeometry relative="1" as="geometry" />
        </mxCell>
        <mxCell id="lyZJZjhXP6hzJfDhOkGa-3" value="&lt;font style=&quot;font-size: 24px;&quot;&gt;2&lt;/font&gt;" style="whiteSpace=wrap;html=1;aspect=fixed;" vertex="1" parent="1">
          <mxGeometry x="459" y="253" width="80" height="80" as="geometry" />
        </mxCell>
        <mxCell id="lyZJZjhXP6hzJfDhOkGa-18" style="rounded=0;orthogonalLoop=1;jettySize=auto;html=1;exitX=0.5;exitY=1;exitDx=0;exitDy=0;entryX=0.5;entryY=0;entryDx=0;entryDy=0;" edge="1" parent="1" source="lyZJZjhXP6hzJfDhOkGa-7" target="lyZJZjhXP6hzJfDhOkGa-12">
          <mxGeometry relative="1" as="geometry" />
        </mxCell>
        <mxCell id="lyZJZjhXP6hzJfDhOkGa-7" value="&lt;font style=&quot;font-size: 24px;&quot;&gt;4&lt;/font&gt;" style="whiteSpace=wrap;html=1;aspect=fixed;" vertex="1" parent="1">
          <mxGeometry x="120" y="262" width="80" height="80" as="geometry" />
        </mxCell>
        <mxCell id="lyZJZjhXP6hzJfDhOkGa-12" value="&lt;span style=&quot;font-size: 24px;&quot;&gt;3&lt;/span&gt;" style="whiteSpace=wrap;html=1;aspect=fixed;" vertex="1" parent="1">
          <mxGeometry x="322" y="404" width="80" height="80" as="geometry" />
        </mxCell>
        <mxCell id="lyZJZjhXP6hzJfDhOkGa-13" value="d[4]=2,p[4]=3,size[4]=1" style="text;html=1;align=center;verticalAlign=middle;resizable=0;points=[];autosize=1;strokeColor=none;fillColor=none;" vertex="1" parent="1">
          <mxGeometry x="207" y="277" width="140" height="26" as="geometry" />
        </mxCell>
        <mxCell id="lyZJZjhXP6hzJfDhOkGa-15" value="d[3]=0,p[3]=3,size[3]=3" style="text;html=1;align=center;verticalAlign=middle;resizable=0;points=[];autosize=1;strokeColor=none;fillColor=none;" vertex="1" parent="1">
          <mxGeometry x="410" y="437" width="140" height="26" as="geometry" />
        </mxCell>
        <mxCell id="lyZJZjhXP6hzJfDhOkGa-16" value="d[2]=1,p[2]=3,size[2]=2" style="text;html=1;align=center;verticalAlign=middle;resizable=0;points=[];autosize=1;strokeColor=none;fillColor=none;" vertex="1" parent="1">
          <mxGeometry x="546" y="280" width="140" height="26" as="geometry" />
        </mxCell>
      </root>
    </mxGraphModel>
  </diagram>
</mxfile>
